HIERARCHY
ROOT Hips
{
  OFFSET 1.44925e-005 102.336 -0.101585
  CHANNELS 6 Xposition Yposition Zposition Zrotation Xrotation Yrotation
  JOINT LeftUpLeg
  {
    OFFSET 8.9458 -8.66707 0.101652
    CHANNELS 3 Zrotation Xrotation Yrotation
    JOINT LeftLeg
    {
      OFFSET 0 -44.4227 1.3727
      CHANNELS 3 Zrotation Xrotation Yrotation
      JOINT LeftFoot
      {
        OFFSET -0.253549 -42.0924 -1.46059
        CHANNELS 3 Zrotation Xrotation Yrotation
        JOINT LeftToes
        {
          OFFSET -0.04 -4.41509 8.4991
          CHANNELS 3 Zrotation Xrotation Yrotation
          End Site
          {
            OFFSET 0.08 -0.047448 9.77979
          }
        }
      }
    }
  }
  JOINT Spine
  {
    OFFSET 0 11.8905 0
    CHANNELS 3 Zrotation Xrotation Yrotation
    JOINT Spine1
    {
      OFFSET 0 25.6574 0.127663
      CHANNELS 3 Zrotation Xrotation Yrotation
      JOINT RightShoulder
      {
        OFFSET -8.99 -0.362252 -0.22
        CHANNELS 3 Zrotation Xrotation Yrotation
        JOINT RightArm
        {
          OFFSET -10.2827 -0.00338 0.322123
          CHANNELS 3 Zrotation Xrotation Yrotation
          JOINT RightForeArm
          {
            OFFSET -26.364 0.099144 -1.42434
            CHANNELS 3 Zrotation Xrotation Yrotation
            JOINT RightHand
            {
              OFFSET -22.0324 0.085362 1.02216
              CHANNELS 3 Zrotation Xrotation Yrotation
              End Site
              {
                OFFSET -13.3284 -0.6 1.50291
              }
            }
          }
        }
      }
      JOINT LeftShoulder1
      {
        OFFSET 8.99 -0.362252 -0.22
        CHANNELS 3 Zrotation Xrotation Yrotation
        JOINT LeftArm
        {
          OFFSET 10.2827 -0.00337999 0.322123
          CHANNELS 3 Zrotation Xrotation Yrotation
          JOINT LeftForeArm
          {
            OFFSET 26.2597 0.099144 -1.42434
            CHANNELS 3 Zrotation Xrotation Yrotation
            JOINT LeftHand
            {
              OFFSET 22.0902 0.085362 1.02216
              CHANNELS 3 Zrotation Xrotation Yrotation
              End Site
              {
                OFFSET 13.419 -0.6 1.50291
              }
            }
          }
        }
      }
      JOINT Head
      {
        OFFSET 0 8.73416 0.011341
        CHANNELS 3 Zrotation Xrotation Yrotation
        End Site
        {
          OFFSET -0.29 12.7742 2.51395
        }
      }
    }
  }
  JOINT RightUpLeg
  {
    OFFSET -8.9458 -8.66707 0.101652
    CHANNELS 3 Zrotation Xrotation Yrotation
    JOINT RightLeg
    {
      OFFSET 0 -44.4227 1.3727
      CHANNELS 3 Zrotation Xrotation Yrotation
      JOINT RightFoot
      {
        OFFSET 0.253549 -42.0924 -1.46059
        CHANNELS 3 Zrotation Xrotation Yrotation
        JOINT RightToes
        {
          OFFSET 0.04 -4.41509 8.4991
          CHANNELS 3 Zrotation Xrotation Yrotation
          End Site
          {
            OFFSET -0.08 -0.137448 9.77979
          }
        }
      }
    }
  }
}
MOTION
Frames:	17
Frame Time:	0.0333333
184.71 103.075 6.64248 -5.09303 -0.617445 -89.3591 -0.536706 3.66056 2.71435 -0.0185431 8.27588 20.0361 -2.67911 -10.6847 -0.0162564 -1.33099e-009 8.75234e-006 -1.47609e-008 1.82608 8.66438 -0.374764 -1.7292 -0.461431 0.126929 36.6973 1.7337 0.0406207 43.2606 -19.5427 7.17543 7.32443 39.2996 8.7614 -8.59374 9.56055 -0.574568 -43.0397 3.44122 -3.43759 -30.5748 -17.5827 -3.58003 -7.41062 41.7638 -9.77301 5.82328 9.61819 -0.917488 -2.34232 -9.3736 -4.9257 -1.60645 3.64547 -5.28138 0.600555 9.92923 -13.8002 3.61745 -12.5545 -0.0546904 0.0462048 0.000530889 0.662642 
184.717 103.075 6.64248 -5.09323 -0.611028 -89.3718 -0.531643 3.6571 2.71434 -0.0179403 8.27503 20.0343 -2.64765 -10.6847 -0.0162564 -1.33099e-009 8.75234e-006 -1.47609e-008 1.90473 8.73873 -0.376554 -1.83953 -0.570317 0.146918 36.7576 1.7337 0.0409197 43.2042 -19.4795 7.11079 7.35572 39.1207 8.77243 -8.6255 9.56063 -0.518395 -42.955 3.43173 -3.43132 -30.6179 -17.526 -3.54965 -7.29396 41.8958 -9.8976 5.82328 9.61819 -0.917488 -2.25205 -9.28947 -4.92451 -1.60788 3.64442 -5.27369 0.600321 9.90587 -13.7967 3.66636 -12.536 -0.0546864 0.0462048 0.000530889 0.662642 
184.736 103.075 6.64248 -5.09882 -0.604729 -89.3583 -0.524753 3.64882 2.71229 -0.013977 8.27939 20.016 -2.63603 -10.6847 -0.0162564 -1.33099e-009 8.75234e-006 -1.47609e-008 1.98866 8.85267 -0.395486 -1.93412 -0.728822 0.147532 36.7701 1.7337 0.0453695 43.1828 -19.3803 7.02072 7.38805 38.9118 8.79294 -8.58141 9.56075 -0.429981 -42.87 3.42069 -3.42181 -30.6561 -17.5799 -3.5038 -7.26645 42.0668 -9.89595 5.82328 9.61819 -0.917488 -2.16309 -9.17767 -4.92128 -1.60526 3.64668 -5.27887 0.610871 9.88122 -13.8558 3.68953 -12.4753 -0.0546736 0.0462048 0.000530889 0.662642 
184.757 103.075 6.64248 -5.11735 -0.592526 -89.3043 -0.510275 3.63418 2.70775 -0.00354107 8.31548 19.9621 -2.65673 -10.6847 -0.0162564 -1.33099e-009 8.75234e-006 -1.47609e-008 2.00511 8.92569 -0.422837 -1.9009 -0.820363 0.1147 36.6835 1.7337 0.0589675 43.2249 -19.2778 6.95968 7.418 38.7547 8.80099 -8.49934 9.56248 -0.408485 -42.8839 3.41825 -3.41657 -30.6367 -17.7333 -3.46127 -7.33723 42.1843 -9.77249 5.82328 9.61819 -0.917488 -2.13959 -9.09666 -4.90044 -1.57747 3.67722 -5.25848 0.599405 9.84157 -13.9419 3.65002 -12.438 -0.0546657 0.0462048 0.000530889 0.662642 
184.771 103.075 6.64248 -5.14912 -0.575289 -89.2614 -0.491137 3.62713 2.71758 0.00970614 8.37093 19.9065 -2.64759 -10.6847 -0.0162564 -1.33099e-009 8.75234e-006 -1.47609e-008 1.99953 8.89512 -0.420298 -1.84862 -0.737127 0.108186 36.6294 1.7337 0.0657911 43.2332 -19.2053 6.96444 7.45599 38.5711 8.79676 -8.48841 9.56946 -0.509056 -42.9457 3.41704 -3.41493 -30.6035 -17.8124 -3.5002 -7.36809 42.2412 -9.71899 5.82328 9.61819 -0.917488 -2.12462 -9.08003 -4.85227 -1.53308 3.72829 -5.21351 0.56961 9.8066 -13.9826 3.6164 -12.4606 -0.0546705 0.0462048 0.000530889 0.662642 
184.783 103.075 6.64248 -5.17964 -0.565597 -89.2528 -0.479901 3.63831 2.73339 0.0142357 8.39613 19.8802 -2.60179 -10.6847 -0.0162564 -1.33099e-009 8.75234e-006 -1.47609e-008 2.03735 8.73866 -0.383669 -1.89944 -0.430573 0.158624 36.7007 1.7337 0.0552336 43.1718 -19.2008 7.06495 7.46243 38.4614 8.81138 -8.4519 9.57564 -0.581498 -42.9645 3.41683 -3.41306 -30.6184 -17.8173 -3.69876 -7.37146 42.2969 -9.70664 5.82328 9.61819 -0.917488 -2.11564 -9.17842 -4.87555 -1.52341 3.75776 -5.2123 0.577238 9.80623 -13.9766 3.62525 -12.4678 -0.054672 0.0462048 0.000530889 0.662642 
184.794 103.074 6.64248 -5.18717 -0.566758 -89.239 -0.480949 3.64004 2.72921 0.0192248 8.39194 19.8755 -2.59383 -10.6847 -0.0162564 -1.33099e-009 8.75234e-006 -1.47609e-008 2.10049 8.53075 -0.355126 -2.00079 -0.0512685 0.212835 36.8018 1.7337 0.0394977 43.1256 -19.2361 7.21499 7.4233 38.5378 8.84508 -8.26823 9.57733 -0.481769 -42.9448 3.41818 -3.41096 -30.6675 -17.9072 -3.96603 -7.45216 42.4185 -9.58365 5.82328 9.61819 -0.917488 -2.16841 -9.33246 -5.0245 -1.55513 3.7534 -5.26904 0.634113 9.81786 -13.9546 3.6258 -12.433 -0.0546647 0.0462048 0.000530889 0.662642 
184.803 103.073 6.64176 -5.17226 -0.572402 -89.2059 -0.48925 3.60851 2.70811 0.0325277 8.40621 19.8723 -2.63061 -10.686 -0.0162565 -1.33099e-009 8.75234e-006 -1.47609e-008 2.10655 8.38883 -0.348971 -2.01302 0.177584 0.223266 36.8007 1.7337 0.0334077 43.1574 -19.2425 7.31548 7.39712 38.6265 8.86089 -8.08954 9.57834 -0.360537 -42.964 3.42191 -3.4089 -30.684 -18.0607 -4.11677 -7.55393 42.5698 -9.42264 5.82328 9.61819 -0.917488 -2.23479 -9.36242 -5.17559 -1.58079 3.73713 -5.3094 0.676708 9.82225 -13.9112 3.60073 -12.4536 -0.054669 0.0462048 0.000530889 0.662642 
184.809 103.072 6.63889 -5.16564 -0.582453 -89.1945 -0.502432 3.58567 2.69588 0.0393434 8.42349 19.8726 -2.61877 -10.6826 -0.0162563 -1.33099e-009 8.75234e-006 -1.47609e-008 2.02438 8.35151 -0.333052 -1.90626 0.239525 0.215605 36.7154 1.7337 0.0311809 43.2262 -19.2391 7.3488 7.39219 38.625 8.86592 -8.10658 9.57808 -0.38771 -43.0501 3.43058 -3.40715 -30.642 -18.0733 -4.13046 -7.5512 42.6403 -9.41665 5.82328 9.61819 -0.917488 -2.21421 -9.24543 -5.1882 -1.58569 3.72231 -5.30448 0.669909 9.85071 -13.8539 3.60237 -12.5311 -0.0546854 0.0462048 0.000530889 0.662642 
184.824 103.071 6.63603 -5.17942 -0.597101 -89.2192 -0.51853 3.60974 2.69303 0.0298707 8.38516 19.8942 -2.54366 -10.6525 -0.0162547 -1.33099e-009 8.75234e-006 -1.47609e-008 1.93929 8.39266 -0.303129 -1.80484 0.239043 0.225731 36.6577 1.7337 0.0306363 43.2693 -19.3057 7.37324 7.31703 38.8064 8.91208 -8.21036 9.57432 -0.398773 -43.1244 3.43817 -3.40596 -30.6044 -17.9386 -4.13216 -7.48719 42.6186 -9.51766 5.82328 9.61819 -0.917488 -2.16505 -9.19329 -5.12597 -1.59837 3.69997 -5.30852 0.655659 9.90366 -13.8397 3.61816 -12.5202 -0.0546831 0.0462048 0.000530889 0.662642 
184.853 103.071 6.63317 -5.17568 -0.608359 -89.2596 -0.533889 3.61537 2.678 0.0219027 8.33551 19.9497 -2.50918 -10.6287 -0.0162534 -1.33099e-009 8.75234e-006 -1.47609e-008 1.9517 8.50702 -0.287619 -1.84399 0.136968 0.252581 36.6751 1.7337 0.031482 43.27 -19.4061 7.38272 7.19034 39.1885 8.98107 -8.2532 9.56549 -0.287439 -43.089 3.43469 -3.40556 -30.6463 -17.8685 -4.1394 -7.47894 42.5938 -9.53823 5.82328 9.61819 -0.917488 -2.21486 -9.28363 -5.14333 -1.61636 3.64054 -5.32164 0.653166 9.94692 -13.8762 3.58353 -12.4377 -0.0546657 0.0462048 0.000530889 0.662642 
184.884 103.071 6.63028 -5.13617 -0.615674 -89.3242 -0.550207 3.55371 2.65709 0.0238808 8.34895 20.0292 -2.53334 -10.6361 -0.0162538 -1.33099e-009 8.75234e-006 -1.47609e-008 2.01527 8.64741 -0.269822 -1.97745 -0.0665656 0.296439 36.7164 1.7337 0.0334262 43.2493 -19.4036 7.34937 7.19061 39.1825 8.98042 -8.36003 9.56643 -0.374325 -42.9894 3.424 -3.40625 -30.7252 -17.8824 -4.09482 -7.5097 42.5557 -9.50339 5.82328 9.61819 -0.917488 -2.30106 -9.32434 -5.23597 -1.61369 3.5378 -5.28345 0.621787 10.0002 -13.873 3.55059 -12.4708 -0.0546726 0.0462048 0.000530889 0.662642 
184.899 103.072 6.62692 -5.1238 -0.629675 -89.4063 -0.564728 3.5411 2.66799 0.00563471 8.34423 20.0813 -2.51797 -10.6324 -0.0162536 -1.33099e-009 8.75234e-006 -1.47609e-008 1.98931 8.68475 -0.215281 -2.00431 -0.0999755 0.353254 36.7082 1.7337 0.0361771 43.2557 -19.2765 7.36311 7.35988 38.575 8.89937 -8.60961 9.58019 -0.750835 -43.0029 3.42392 -3.40855 -30.7022 -17.8005 -4.08626 -7.50733 42.4275 -9.53629 5.82328 9.61819 -0.917488 -2.2804 -9.27108 -5.28527 -1.61876 3.47246 -5.24672 0.582898 10.0785 -13.7757 3.60153 -12.5703 -0.0546937 0.0462048 0.000530889 0.662642 
184.904 103.075 6.62683 -5.18471 -0.6454 -89.439 -0.551875 3.65926 2.72668 -0.0567516 8.25041 20.0568 -2.49992 -10.6336 -0.017235 -1.33099e-009 8.75234e-006 -1.47609e-008 1.90297 8.64961 -0.170915 -1.8971 0.0819472 0.380557 36.6504 1.7337 0.039606 43.3052 -19.1504 7.47213 7.49838 38.1415 8.82705 -8.73403 9.57939 -0.812956 -43.1598 3.43962 -3.41617 -30.5594 -17.6672 -4.17783 -7.51249 42.3091 -9.57171 5.82328 9.61819 -0.917488 -2.18701 -9.31156 -5.2528 -1.67952 3.53851 -5.34913 0.642759 10.075 -13.6404 3.61647 -12.5048 -0.0546798 0.0462048 0.000530889 0.662642 
184.926 103.072 6.64592 -5.2447 -0.638318 -89.4272 -0.507434 3.65829 2.78622 -0.121117 8.4001 20.0248 -2.70266 -10.8597 -0.0262274 -1.33099e-009 8.75234e-006 -1.47609e-008 1.96681 8.87153 -0.200851 -1.93505 -0.116269 0.366635 36.6289 1.7337 0.0470748 43.3132 -19.0978 7.47106 7.49161 38.4658 8.79089 -8.5131 9.5524 -0.258089 -43.2252 3.44956 -3.42622 -30.47 -17.646 -4.11427 -7.50383 42.3217 -9.58457 5.82328 9.61819 -0.917488 -2.05227 -9.32042 -5.13898 -1.77905 3.61263 -5.56479 0.808533 10.0399 -13.4848 3.50485 -12.4472 -0.0540336 0.0462048 0.000530889 0.662642 
184.976 103.009 6.6886 -5.23831 -0.619794 -89.5168 -0.511483 3.19272 2.741 -0.0865206 9.36046 20.1815 -3.22048 -11.5588 -0.0568253 -1.33099e-009 8.75234e-006 -1.47609e-008 2.22644 9.56201 -0.253457 -2.26709 -1.08299 0.38058 36.6721 1.7337 0.0578013 43.211 -19.0505 7.19734 7.45263 38.9632 8.76593 -8.14909 9.53831 0.224494 -43.0781 3.44 -3.42931 -30.5108 -17.5251 -3.65356 -7.30944 42.2294 -9.83254 5.82328 9.61819 -0.917488 -1.71143 -8.90177 -4.9046 -1.88601 3.3855 -5.71619 0.918725 10.4647 -13.2065 3.63971 -12.9215 -0.0368731 0.0462048 0.000530889 0.662642 
185.028 102.855 6.76864 -5.27944 -0.602141 -89.7491 -0.661605 2.33095 2.53475 0.13254 11.2652 20.5966 -3.8631 -12.7052 -0.111245 -1.33099e-009 8.75234e-006 -1.47609e-008 2.46676 10.3844 -0.247686 -2.57573 -2.07994 0.449484 36.649 1.7337 0.0642236 43.1029 -18.9391 6.92624 7.46828 38.8977 8.78227 -7.91942 9.55952 0.059441 -43.0131 3.43749 -3.43411 -30.4926 -17.01 -3.1066 -6.95058 41.7446 -10.3823 5.82328 9.61819 -0.917488 -1.20878 -8.24878 -4.6325 -2.02338 2.80884 -5.76175 0.85418 11.7647 -12.7749 4.59407 -14.0677 0.0479749 0.0462048 0.000530889 0.662642 
